<?xml version="1.0" standalone="no"?>
<!DOCTYPE svg PUBLIC "-//W3C//DTD SVG 20010904//EN"
 "http://www.w3.org/TR/2001/REC-SVG-20010904/DTD/svg10.dtd">
<svg version="1.0" xmlns="http://www.w3.org/2000/svg"
 width="814.000000pt" height="1280.000000pt" viewBox="0 0 814.000000 1280.000000"
 preserveAspectRatio="xMidYMid meet">
<metadata>
Created by potrace 1.15, written by Peter Selinger 2001-2017
</metadata>
<g transform="translate(0.000000,1280.000000) scale(0.100000,-0.100000)"
fill="#000000" stroke="none">
<path d="M1700 12793 c-138 -15 -356 -71 -517 -134 l-101 -40 -56 -102 c-31
-56 -114 -178 -186 -272 -237 -311 -300 -414 -345 -572 -24 -82 -26 -103 -27
-318 -2 -207 1 -246 25 -385 51 -298 57 -351 57 -468 0 -205 -42 -320 -162
-448 -72 -76 -86 -104 -118 -239 -37 -154 -42 -247 -41 -697 2 -467 -7 -604
-49 -758 -135 -498 -188 -801 -177 -1015 11 -221 71 -396 187 -550 20 -27 133
-219 250 -425 246 -433 400 -689 547 -914 57 -88 117 -184 133 -215 71 -141
173 -279 412 -558 289 -338 403 -509 466 -703 65 -200 155 -609 187 -859 50
-376 49 -367 50 -1606 1 -1049 2 -1177 17 -1242 20 -87 38 -122 83 -168 49
-48 97 -71 196 -91 95 -19 258 -16 499 11 226 25 357 29 440 14 98 -18 354
-14 428 7 29 8 67 27 84 43 l31 28 -12 204 c-6 112 -25 377 -41 589 -41 538
-50 699 -50 981 l0 246 25 11 c56 26 87 6 110 -72 18 -58 35 -248 35 -386 0
-116 15 -265 32 -322 12 -41 26 -48 106 -48 127 0 141 97 63 426 -79 334 -85
394 -55 521 13 51 17 116 17 258 -1 183 -5 241 -53 645 -45 374 -37 652 20
753 71 126 55 306 -36 407 -77 85 -156 54 -226 -87 -26 -54 -40 -70 -82 -94
-298 -172 -583 -12 -826 466 -67 132 -123 274 -144 370 -21 95 -94 239 -166
328 -76 95 -148 161 -345 321 -323 262 -406 348 -443 463 -38 119 -45 170 -39
312 8 210 39 314 224 736 143 326 160 374 142 386 -58 37 -111 -28 -258 -318
-129 -255 -178 -337 -241 -401 -44 -46 -126 -91 -209 -116 -77 -23 -107 -21
-138 10 l-26 26 9 142 c17 286 11 319 -62 345 -57 20 -131 69 -156 104 -31 44
-28 112 8 174 15 27 115 134 225 243 201 199 221 226 204 279 -5 17 -15 18
-98 18 -74 -1 -101 3 -138 19 -95 44 -160 124 -161 199 -1 51 18 80 69 101 43
19 181 18 225 0 59 -25 129 -30 171 -13 98 41 81 180 -29 232 -39 18 -129 21
-181 6 -29 -8 -38 -5 -89 31 -60 42 -93 75 -94 95 -1 51 206 51 474 2 l109
-20 69 30 c83 38 143 41 183 9 41 -32 55 -76 55 -171 0 -111 -26 -214 -88
-340 -2 -5 14 1 37 12 55 29 96 27 117 -4 9 -13 22 -71 30 -127 8 -57 19 -116
24 -133 l10 -30 232 0 c254 -1 250 0 663 -80 127 -25 275 -52 330 -60 140 -22
384 -30 473 -16 83 13 87 12 212 -72 185 -124 325 -322 392 -552 20 -69 23
-103 23 -250 0 -155 -3 -179 -28 -277 -27 -99 -28 -112 -18 -178 26 -162 70
-172 121 -26 39 116 53 215 60 451 5 188 10 238 24 273 32 74 90 85 160 30
138 -108 267 -352 296 -561 23 -160 109 -259 148 -171 18 37 14 122 -8 184
-10 30 -17 56 -16 58 2 1 36 12 77 23 279 76 581 233 834 433 130 103 315 290
355 360 108 190 259 337 600 586 167 122 374 285 403 317 17 20 17 21 -13 53
-47 51 -63 88 -68 165 -5 88 13 160 80 313 129 296 144 351 114 410 -9 17 -24
36 -34 41 -9 5 -26 32 -36 60 -24 66 -71 131 -96 131 -61 0 -131 -222 -161
-514 -19 -186 -93 -417 -181 -563 -43 -72 -123 -154 -172 -177 -78 -37 -169
-17 -250 54 -27 24 -43 30 -78 30 -25 0 -80 9 -122 20 -195 50 -326 175 -392
377 -27 82 -29 99 -29 243 1 132 5 171 27 265 14 61 31 144 37 185 32 207 162
477 344 710 75 95 262 303 356 394 45 43 80 80 79 81 -2 0 -40 6 -86 13 -211
29 -167 85 68 85 129 0 227 -17 276 -50 38 -24 165 -1 178 34 33 85 -372 253
-610 253 -41 0 -82 -7 -116 -21 -143 -57 -213 -63 -293 -25 -53 25 -105 76
-202 196 -65 81 -145 160 -182 180 -28 14 -31 32 45 -275 73 -301 94 -429 94
-583 -1 -70 -5 -147 -10 -172 -5 -25 -41 -270 -80 -545 -119 -839 -203 -1354
-236 -1443 -21 -56 -105 -142 -174 -178 -72 -36 -189 -45 -275 -19 -173 50
-350 196 -455 375 -77 131 -102 224 -102 365 1 59 -5 120 -13 150 -26 88 -65
277 -80 380 -48 331 -18 609 90 830 52 107 142 235 165 235 38 0 137 43 167
72 65 62 57 113 -51 352 -81 179 -96 228 -96 313 1 68 17 120 54 167 l26 34
-63 64 c-67 69 -131 104 -171 94 -58 -14 -90 -65 -187 -296 -34 -80 -72 -171
-86 -203 -30 -72 -68 -257 -83 -402 -6 -60 -15 -254 -20 -430 -13 -410 -23
-534 -66 -785 -94 -547 -160 -748 -292 -891 -115 -124 -249 -147 -425 -73 -34
14 -96 38 -137 54 -205 75 -322 180 -390 353 -61 155 -65 192 -65 619 0 442
10 403 -91 373 -113 -33 -240 -148 -440 -397 -143 -178 -328 -382 -397 -437
-58 -45 -161 -96 -249 -122 -103 -30 -336 -37 -468 -15 -119 21 -269 66 -380
116 -47 21 -106 45 -132 55 -109 38 -240 147 -343 284 -110 146 -185 313 -185
413 0 18 10 54 23 78 29 58 75 81 162 82 78 2 69 -9 144 181 70 179 100 234
159 299 52 56 171 128 211 128 9 0 48 23 86 51 159 117 185 106 199 -88 5 -84
17 -122 81 -277 66 -160 143 -253 250 -302 209 -96 507 -6 805 241 155 129
248 245 197 245 -58 0 -318 -129 -447 -222 -149 -107 -231 -128 -357 -90 -85
26 -146 66 -216 141 -160 173 -148 375 28 495 45 31 63 51 82 93 54 117 10
149 -241 173 -145 15 -146 15 -146 96 0 87 -23 194 -72 334 -107 305 -127 371
-138 445 -18 127 4 226 72 316 32 43 33 46 24 101 -27 171 76 285 287 319 129
20 354 2 576 -47 l33 -7 -17 33 c-76 147 -300 222 -575 193z"/>
<path d="M2437 12503 c-13 -12 -7 -54 13 -94 12 -22 53 -90 92 -152 96 -150
130 -232 127 -306 -2 -40 4 -68 19 -101 27 -57 27 -85 -1 -135 -29 -51 -92
-98 -227 -169 -123 -66 -166 -103 -155 -135 8 -25 60 -60 126 -85 l46 -17 45
30 c151 102 308 106 463 13 93 -56 211 -182 311 -333 49 -74 100 -155 114
-181 23 -44 28 -48 61 -48 57 0 150 20 192 41 103 53 64 144 -156 364 -193
192 -230 236 -271 322 -35 71 -38 84 -33 139 5 73 32 134 123 286 101 167 94
218 -31 218 -46 0 -56 -5 -117 -54 -81 -65 -166 -100 -222 -92 -113 18 -192
109 -317 361 -44 90 -66 124 -82 129 -30 8 -112 8 -120 -1z"/>
<path d="M4207 12113 c-38 -6 -44 -29 -17 -58 12 -13 85 -63 162 -112 77 -48
170 -115 207 -149 61 -57 117 -94 139 -94 76 0 -121 340 -229 396 -29 15 -209
27 -262 17z"/>
<path d="M3863 11719 c-88 -43 -192 -171 -193 -236 0 -18 7 -23 44 -28 76 -12
128 14 146 72 6 21 28 70 47 109 52 100 39 124 -44 83z"/>
<path d="M3345 11691 c-16 -52 21 -90 71 -71 30 12 30 21 -2 59 -29 35 -60 40
-69 12z"/>
<path d="M5341 11461 c-69 -29 -93 -53 -74 -72 7 -7 85 -32 174 -56 233 -63
311 -106 313 -173 1 -16 5 -30 9 -30 15 0 96 60 112 82 56 81 -32 188 -197
242 -135 44 -244 47 -337 7z"/>
<path d="M2747 11243 c-57 -64 -9 -186 105 -269 59 -44 75 -40 97 23 14 39 13
42 -27 125 -23 48 -55 97 -73 112 -35 30 -79 34 -102 9z"/>
<path d="M5357 11193 c-4 -3 -7 -24 -7 -45 0 -33 4 -40 27 -49 38 -14 87 -8
91 13 4 23 -56 88 -82 88 -13 0 -26 -3 -29 -7z"/>
<path d="M7574 10495 c-22 -34 -11 -89 32 -162 31 -50 78 -102 94 -103 13 0
30 70 30 124 0 70 -22 122 -64 147 -42 26 -72 24 -92 -6z"/>
<path d="M7762 10016 c-9 -30 2 -204 13 -214 13 -13 83 -29 100 -22 49 18 17
170 -52 243 -35 36 -50 34 -61 -7z"/>
<path d="M7994 9092 c1 -231 -7 -318 -46 -506 -35 -175 -100 -372 -164 -497
-28 -55 -25 -84 9 -93 27 -7 48 17 112 124 62 105 118 230 159 354 108 327 96
616 -32 793 l-38 52 0 -227z"/>
<path d="M7727 7769 c-108 -153 -135 -268 -167 -734 -21 -293 -37 -412 -70
-525 -10 -36 -26 -105 -35 -155 -39 -209 -110 -480 -195 -734 -53 -161 -157
-440 -196 -530 -14 -30 -22 -56 -20 -58 12 -12 137 68 187 118 143 144 213
335 284 768 20 119 44 261 55 316 10 55 21 136 25 180 9 116 36 275 104 612
33 164 67 351 76 416 16 128 20 354 6 376 -6 10 -20 -4 -54 -50z"/>
<path d="M4625 6076 c-68 -31 -112 -70 -156 -139 -90 -138 -127 -297 -169
-722 -20 -202 -26 -257 -36 -300 -9 -39 67 59 101 130 39 81 72 198 114 407
28 136 55 253 67 287 3 9 12 -1 25 -27 57 -115 147 -105 184 21 26 89 15 194
-32 294 -35 73 -40 76 -98 49z"/>
<path d="M6880 4831 c-70 -21 -139 -82 -176 -152 -22 -43 -31 -144 -14 -164
22 -26 65 -18 117 23 190 151 238 343 73 293z"/>
<path d="M5162 4519 c-52 -26 -119 -100 -157 -172 -23 -43 -39 -59 -79 -80
-165 -86 -255 -252 -197 -364 11 -23 33 -50 48 -60 66 -46 83 -48 388 -48 317
1 438 12 730 66 171 32 218 51 303 124 89 77 47 110 -188 145 -325 48 -361 64
-473 204 -146 181 -264 240 -375 185z"/>
<path d="M6578 4163 c-67 -74 -156 -235 -199 -363 -17 -52 -65 -162 -106 -244
-135 -270 -206 -468 -237 -662 -30 -188 -15 -399 39 -561 22 -64 25 -91 25
-216 0 -435 83 -898 309 -1732 73 -267 85 -295 132 -295 10 0 25 10 34 23 13
21 12 37 -10 168 -26 157 -83 415 -169 772 -123 509 -157 712 -183 1102 -27
386 -24 566 11 740 37 185 113 416 247 753 136 340 165 437 160 525 -1 25 -24
21 -53 -10z"/>
<path d="M4658 3330 c-122 -37 -156 -139 -103 -307 69 -221 100 -432 125 -868
22 -383 43 -563 86 -751 22 -97 28 -113 50 -123 57 -26 96 -9 120 54 14 37 16
66 11 163 -2 64 -10 147 -17 183 -12 63 -12 68 14 132 54 136 60 274 22 542
-35 242 -40 319 -27 410 19 135 81 233 191 301 l60 37 -23 40 c-61 108 -251
198 -417 196 -36 0 -77 -4 -92 -9z"/>
</g>
</svg>
